<svg aria-hidden="true" style="position: absolute; width: 0; height: 0; overflow: hidden;" version="1.1" xmlns="http://www.w3.org/2000/svg" xmlns:xlink="http://www.w3.org/1999/xlink">
<defs>
<symbol id="icon-client1" viewBox="0 0 31 16">
<path d="M12.727 4.182l1.274 1.214-2.365-0.001v5.889h6.182v-2.252l1.273 1.213v-6.063h-6.364zM17.762 8.889l-3.613-3.442h3.613v3.442zM16.641 10.422h-4.026v-3.961h0.285v3.693h3.741v0.268zM13.417 12.375l-0.15-0.309h-0.124l0.217 0.408v0.238h0.112v-0.238l0.218-0.408h-0.123l-0.15 0.309zM13.971 12.066h0.027l0.244 0.646h-0.117l-0.052-0.151h-0.25l-0.052 0.151h-0.117l0.243-0.646h0.075zM13.852 12.473h0.189l-0.095-0.274-0.095 0.274zM14.633 12.366c-0.005-0.006-0.010-0.012-0.014-0.018-0.017-0.022-0.029-0.043-0.039-0.063s-0.014-0.042-0.014-0.064c0-0.034 0.007-0.063 0.021-0.087s0.034-0.043 0.059-0.056c0.025-0.013 0.055-0.020 0.089-0.020 0.033 0 0.061 0.007 0.085 0.020s0.042 0.030 0.055 0.052c0.013 0.022 0.020 0.045 0.020 0.071 0 0.020-0.004 0.039-0.011 0.056s-0.018 0.032-0.031 0.046c-0.013 0.014-0.028 0.027-0.045 0.040l-0.045 0.033 0.128 0.151c0.004-0.008 0.008-0.017 0.011-0.026 0.011-0.028 0.016-0.060 0.016-0.095h0.092c0 0.031-0.003 0.061-0.009 0.089s-0.016 0.054-0.029 0.078c-0.005 0.010-0.012 0.019-0.018 0.029l0.095 0.112h-0.124l-0.038-0.044c-0.020 0.015-0.042 0.027-0.066 0.036-0.031 0.011-0.065 0.017-0.1 0.017-0.043 0-0.080-0.008-0.111-0.024s-0.056-0.037-0.073-0.065c-0.017-0.028-0.025-0.059-0.025-0.095 0-0.026 0.005-0.049 0.016-0.069s0.026-0.039 0.045-0.056c0.017-0.016 0.037-0.032 0.060-0.048zM14.686 12.431l-0.013 0.010c-0.016 0.013-0.027 0.025-0.035 0.037s-0.012 0.022-0.015 0.032c-0.002 0.010-0.004 0.018-0.004 0.026 0 0.019 0.004 0.036 0.012 0.051s0.020 0.028 0.036 0.037c0.016 0.009 0.035 0.013 0.058 0.013 0.025 0 0.048-0.005 0.071-0.016 0.012-0.006 0.023-0.012 0.033-0.020l-0.144-0.169zM14.712 12.313l0.040-0.027c0.019-0.012 0.032-0.025 0.040-0.036s0.012-0.027 0.012-0.045c0-0.015-0.006-0.030-0.018-0.043s-0.029-0.020-0.050-0.020c-0.015 0-0.028 0.004-0.038 0.011s-0.018 0.016-0.024 0.028c-0.005 0.011-0.008 0.024-0.008 0.038s0.003 0.027 0.010 0.041c0.007 0.014 0.016 0.029 0.028 0.044 0.002 0.003 0.005 0.006 0.007 0.009zM15.842 12.502h-0.111c-0.003 0.028-0.010 0.052-0.020 0.071s-0.025 0.034-0.045 0.044c-0.020 0.010-0.045 0.015-0.077 0.015-0.026 0-0.048-0.005-0.067-0.016s-0.034-0.025-0.046-0.044c-0.012-0.019-0.021-0.042-0.027-0.068s-0.008-0.056-0.008-0.089v-0.055c0-0.034 0.003-0.065 0.009-0.091s0.016-0.050 0.029-0.068c0.013-0.018 0.029-0.032 0.048-0.042s0.041-0.014 0.067-0.014c0.031 0 0.056 0.005 0.075 0.016s0.034 0.025 0.044 0.045c0.010 0.020 0.017 0.044 0.020 0.071h0.111c-0.004-0.043-0.017-0.082-0.036-0.115s-0.047-0.060-0.083-0.079c-0.036-0.019-0.079-0.028-0.13-0.028-0.041 0-0.077 0.007-0.11 0.021s-0.060 0.035-0.083 0.062c-0.023 0.027-0.041 0.059-0.053 0.096s-0.018 0.080-0.018 0.126v0.054c0 0.046 0.006 0.088 0.018 0.126s0.030 0.070 0.052 0.096c0.023 0.026 0.050 0.047 0.082 0.061s0.068 0.021 0.108 0.021c0.052 0 0.096-0.009 0.133-0.028s0.065-0.045 0.085-0.078c0.020-0.033 0.032-0.071 0.036-0.113zM16.459 12.407v-0.036c0-0.049-0.007-0.092-0.020-0.131s-0.031-0.072-0.055-0.099c-0.024-0.028-0.052-0.048-0.085-0.063s-0.069-0.022-0.109-0.022c-0.040 0-0.076 0.007-0.109 0.022s-0.061 0.035-0.085 0.063c-0.024 0.027-0.042 0.060-0.055 0.099s-0.020 0.082-0.020 0.131v0.036c0 0.049 0.007 0.093 0.020 0.131s0.032 0.072 0.056 0.099c0.024 0.027 0.052 0.048 0.085 0.063s0.069 0.021 0.109 0.021c0.040 0 0.076-0.007 0.109-0.021s0.061-0.035 0.084-0.063c0.024-0.027 0.042-0.060 0.055-0.099s0.019-0.083 0.019-0.131zM16.348 12.371v0.036c0 0.036-0.004 0.068-0.011 0.096s-0.017 0.051-0.030 0.071c-0.013 0.019-0.030 0.033-0.049 0.043s-0.041 0.014-0.066 0.014c-0.025 0-0.046-0.005-0.066-0.014s-0.036-0.024-0.050-0.043c-0.014-0.019-0.024-0.043-0.031-0.071s-0.011-0.060-0.011-0.096v-0.036c0-0.036 0.004-0.068 0.011-0.095s0.017-0.051 0.031-0.070c0.014-0.019 0.030-0.033 0.049-0.043s0.041-0.015 0.066-0.015 0.047 0.005 0.066 0.015c0.020 0.009 0.036 0.024 0.049 0.043s0.024 0.042 0.031 0.070c0.007 0.028 0.011 0.059 0.011 0.095z"></path>
</symbol>
<symbol id="icon-client2" viewBox="0 0 31 16">
<path d="M14.93 3.988h-0.025c-0.038-0.002-0.076-0.003-0.115-0.004v0h-0.083c-0.072 0-0.146 0.002-0.219 0.006-0.006-0-0.011-0-0.017 0-0.663 0.038-1.312 0.203-1.912 0.488l-0.079 0.038v4.026l0.184-0.062c0.161-0.055 0.333-0.105 0.511-0.152 0.481-0.124 0.975-0.189 1.472-0.196v0.529c-0.066 0-0.13 0.002-0.194 0.006h-0.015c-0.382 0.021-0.761 0.079-1.132 0.174-0.47 0.118-0.923 0.294-1.349 0.526v-5.163c0.442-0.258 0.919-0.452 1.415-0.576 0.436-0.113 0.884-0.17 1.334-0.172h0.078c0.093 0.002 0.184 0.006 0.269 0.013 0.224 0.016 0.447 0.051 0.665 0.106v0.521c-0.212-0.049-0.427-0.082-0.644-0.097-0.004-0-0.009-0.001-0.013-0.001-0.045-0.004-0.090-0.008-0.132-0.008zM15.846 4.52c0.115 0.009 0.235 0.013 0.356 0.013 0.473-0.002 0.944-0.062 1.402-0.18 0.47-0.118 0.923-0.295 1.349-0.526v5.071c-0.443 0.258-0.919 0.452-1.416 0.576-0.436 0.112-0.884 0.17-1.334 0.172-0.341 0.003-0.681-0.037-1.012-0.119v-5.104c0.078 0.018 0.159 0.035 0.241 0.049 0.134 0.023 0.276 0.039 0.414 0.049zM18.427 4.56l-0.184 0.062c-0.169 0.057-0.34 0.108-0.511 0.153-0.499 0.128-1.013 0.194-1.528 0.196-0.12 0-0.23-0.003-0.337-0.010l-0.147-0.010v4.141l0.126 0.011c0.117 0.010 0.237 0.015 0.359 0.015 0.406-0.002 0.81-0.054 1.204-0.156 0.324-0.081 0.639-0.194 0.941-0.338l0.079-0.038v-4.027z"></path>
<path d="M12.316 11.13c-0.026-0.027-0.058-0.049-0.094-0.063s-0.073-0.021-0.111-0.020c-0.040-0.001-0.081 0.007-0.118 0.022-0.034 0.014-0.066 0.034-0.092 0.061s-0.046 0.058-0.059 0.092c-0.014 0.036-0.022 0.075-0.021 0.114v0.69c-0.002 0.049 0.008 0.097 0.027 0.141 0.016 0.035 0.040 0.067 0.069 0.092 0.028 0.023 0.060 0.040 0.095 0.049 0.034 0.009 0.068 0.014 0.103 0.014 0.038 0 0.076-0.008 0.111-0.024 0.034-0.015 0.066-0.037 0.092-0.064s0.046-0.058 0.060-0.092c0.015-0.035 0.022-0.072 0.022-0.11v-0.077h-0.18v0.061c0.001 0.021-0.003 0.042-0.011 0.061-0.006 0.015-0.015 0.028-0.026 0.039-0.011 0.009-0.024 0.016-0.038 0.020-0.012 0.004-0.025 0.006-0.038 0.006-0.016 0.002-0.032-0.001-0.047-0.007s-0.028-0.017-0.037-0.030c-0.017-0.028-0.025-0.060-0.024-0.092v-0.643c-0.001-0.036 0.006-0.071 0.022-0.103 0.009-0.015 0.023-0.026 0.038-0.034s0.033-0.010 0.050-0.008c0.016-0.001 0.031 0.003 0.045 0.009s0.026 0.017 0.035 0.029c0.020 0.026 0.031 0.059 0.030 0.092v0.060h0.178v-0.070c0-0.041-0.007-0.082-0.022-0.121-0.013-0.036-0.034-0.069-0.060-0.097z"></path>
<path d="M13.387 11.122c-0.057-0.049-0.13-0.075-0.205-0.076-0.037 0-0.073 0.007-0.108 0.019s-0.067 0.032-0.095 0.056c-0.030 0.027-0.054 0.060-0.070 0.097-0.018 0.042-0.027 0.088-0.026 0.134v0.662c-0.001 0.047 0.008 0.093 0.026 0.135 0.016 0.036 0.040 0.067 0.070 0.092 0.028 0.026 0.060 0.045 0.095 0.058s0.071 0.019 0.108 0.019c0.037-0 0.073-0.007 0.108-0.019 0.036-0.013 0.069-0.033 0.098-0.058s0.052-0.057 0.068-0.092c0.019-0.043 0.027-0.089 0.026-0.135v-0.662c0.001-0.046-0.008-0.091-0.026-0.134-0.016-0.036-0.039-0.069-0.068-0.097zM13.303 12.014c0.002 0.018-0.001 0.035-0.007 0.052s-0.016 0.032-0.029 0.044c-0.024 0.020-0.054 0.031-0.085 0.031s-0.061-0.011-0.085-0.031c-0.013-0.012-0.023-0.027-0.029-0.044s-0.009-0.034-0.007-0.052v-0.662c-0.002-0.018 0.001-0.035 0.007-0.052s0.016-0.032 0.029-0.044c0.024-0.020 0.054-0.031 0.085-0.031s0.061 0.011 0.085 0.031c0.013 0.012 0.023 0.027 0.029 0.044s0.009 0.034 0.007 0.052v0.662z"></path>
<path d="M14.794 12.309v-1.252h-0.173l-0.228 0.663h-0.003l-0.23-0.663h-0.172v1.252h0.179v-0.762h0.003l0.175 0.539h0.089l0.177-0.539h0.003v0.762h0.179z"></path>
<path d="M15.811 11.144c-0.028-0.031-0.062-0.054-0.101-0.068-0.042-0.014-0.086-0.020-0.13-0.019h-0.266v1.253h0.178v-0.489h0.092c0.056 0.003 0.111-0.009 0.161-0.034 0.041-0.023 0.074-0.056 0.098-0.096 0.021-0.033 0.035-0.070 0.041-0.109 0.007-0.047 0.010-0.095 0.010-0.142 0.002-0.060-0.004-0.12-0.017-0.179-0.012-0.043-0.035-0.083-0.066-0.115zM15.719 11.526c-0.001 0.023-0.006 0.045-0.017 0.065-0.010 0.019-0.026 0.035-0.046 0.044-0.026 0.012-0.055 0.017-0.084 0.016h-0.081v-0.426h0.092c0.028-0.001 0.055 0.004 0.080 0.016 0.018 0.011 0.033 0.027 0.042 0.046 0.010 0.022 0.015 0.046 0.016 0.070 0 0.026 0 0.054 0 0.083s0.002 0.059 0 0.086h-0.002z"></path>
<path d="M16.656 11.056h-0.146l-0.276 1.252h0.178l0.052-0.269h0.243l0.052 0.269h0.178l-0.283-1.252zM16.491 11.869l0.088-0.454h0.003l0.087 0.454h-0.178z"></path>
<path d="M17.809 11.811h-0.003l-0.27-0.755h-0.172v1.252h0.178v-0.753h0.004l0.273 0.753h0.168v-1.252h-0.178v0.755z"></path>
<path d="M18.9 11.056l-0.144 0.498h-0.004l-0.143-0.498h-0.189l0.245 0.723v0.529h0.179v-0.529l0.245-0.723h-0.189z"></path>
<path d="M11.818 12.663h0.086v0.241h0.058v-0.241h0.086v-0.049h-0.23v0.049z"></path>
<path d="M12.541 12.613l-0.113 0.291h0.062l0.024-0.066h0.116l0.025 0.066h0.063l-0.115-0.291h-0.062zM12.532 12.789l0.040-0.108 0.040 0.108h-0.079z"></path>
<path d="M13.256 12.797h0.067v0.037c-0.020 0.016-0.044 0.024-0.069 0.025-0.012 0.001-0.023-0.002-0.034-0.006s-0.020-0.012-0.027-0.021c-0.015-0.022-0.023-0.049-0.022-0.076 0-0.065 0.028-0.097 0.084-0.097 0.015-0.001 0.029 0.002 0.041 0.011s0.021 0.021 0.024 0.035l0.057-0.011c-0.012-0.057-0.053-0.086-0.123-0.086-0.037-0.001-0.074 0.012-0.102 0.037-0.015 0.014-0.026 0.032-0.033 0.051s-0.010 0.040-0.009 0.061c-0.002 0.040 0.012 0.079 0.037 0.109 0.014 0.015 0.031 0.026 0.051 0.033s0.039 0.010 0.060 0.009c0.046 0.001 0.090-0.015 0.123-0.046v-0.115h-0.126v0.049z"></path>
<path d="M13.986 12.613h-0.059v0.291h0.204v-0.049h-0.145v-0.241z"></path>
<path d="M14.603 12.613h-0.059v0.291h0.059v-0.291z"></path>
<path d="M15.207 12.807l-0.119-0.194h-0.057v0.291h0.055v-0.19l0.117 0.19h0.058v-0.291h-0.054v0.194z"></path>
<path d="M15.752 12.776h0.145v-0.049h-0.145v-0.064h0.156v-0.049h-0.215v0.291h0.221v-0.049h-0.162v-0.079z"></path>
<path d="M17.075 12.728h-0.115v-0.115h-0.058v0.291h0.058v-0.127h0.115v0.127h0.058v-0.291h-0.058v0.115z"></path>
<path d="M17.624 12.776h0.145v-0.049h-0.145v-0.064h0.156v-0.049h-0.215v0.291h0.22v-0.049h-0.162v-0.079z"></path>
<path d="M18.368 12.776c0.051-0.008 0.076-0.035 0.076-0.081 0.001-0.012-0-0.025-0.005-0.036s-0.013-0.021-0.023-0.028c-0.026-0.013-0.056-0.019-0.085-0.017h-0.123v0.291h0.059v-0.122h0.011c0.012-0.001 0.025 0.001 0.036 0.006 0.009 0.005 0.016 0.013 0.021 0.021l0.063 0.092h0.070l-0.035-0.057c-0.016-0.028-0.038-0.052-0.064-0.070zM18.309 12.736h-0.043v-0.073h0.046c0.020-0.002 0.040 0.001 0.059 0.007 0.004 0.004 0.008 0.008 0.010 0.014s0.003 0.011 0.003 0.017c-0 0.006-0.002 0.011-0.004 0.016s-0.007 0.009-0.011 0.013c-0.019 0.006-0.039 0.008-0.059 0.007z"></path>
<path d="M18.929 12.776h0.145v-0.049h-0.145v-0.064h0.156v-0.049h-0.215v0.291h0.221v-0.049h-0.162v-0.079z"></path>
</symbol>
<symbol id="icon-client3" viewBox="0 0 31 16">
<path d="M12.511 11.859c0.003 0 0.006 0.001 0.008 0.002s0.005 0.003 0.007 0.004l0.040 0.038c-0.031 0.031-0.070 0.055-0.113 0.072-0.051 0.018-0.105 0.027-0.16 0.026-0.052 0.001-0.103-0.007-0.151-0.024-0.043-0.015-0.082-0.038-0.113-0.068-0.032-0.030-0.057-0.066-0.073-0.105-0.018-0.043-0.026-0.089-0.026-0.134-0.001-0.046 0.009-0.092 0.028-0.135 0.018-0.039 0.044-0.075 0.078-0.105s0.075-0.053 0.12-0.068c0.049-0.016 0.102-0.025 0.155-0.024 0.049-0.001 0.098 0.006 0.144 0.022 0.040 0.015 0.076 0.035 0.108 0.060l-0.034 0.040c-0.002 0.003-0.005 0.005-0.009 0.007s-0.009 0.003-0.014 0.003c-0.005-0-0.010-0.002-0.015-0.004l-0.018-0.011-0.025-0.014c-0.011-0.005-0.022-0.010-0.034-0.013-0.015-0.005-0.030-0.008-0.046-0.011-0.020-0.003-0.040-0.005-0.060-0.004-0.038-0-0.076 0.006-0.111 0.018-0.033 0.011-0.063 0.029-0.087 0.051-0.025 0.023-0.044 0.051-0.057 0.081-0.014 0.034-0.021 0.070-0.021 0.106-0.001 0.037 0.006 0.073 0.021 0.108 0.012 0.030 0.031 0.057 0.056 0.080 0.023 0.022 0.051 0.039 0.083 0.050s0.068 0.017 0.103 0.017c0.020 0 0.041-0.001 0.061-0.003 0.033-0.003 0.065-0.013 0.093-0.029 0.014-0.008 0.027-0.017 0.040-0.027 0.005-0.004 0.012-0.007 0.019-0.007v0z"></path>
<path d="M13.67 11.669c0.001 0.045-0.009 0.091-0.027 0.133-0.016 0.039-0.042 0.074-0.076 0.104s-0.074 0.053-0.119 0.068c-0.098 0.032-0.207 0.032-0.305 0-0.044-0.015-0.085-0.039-0.118-0.068s-0.059-0.066-0.076-0.105c-0.036-0.086-0.036-0.181 0-0.267 0.017-0.039 0.043-0.075 0.076-0.105 0.034-0.029 0.074-0.051 0.118-0.066 0.098-0.033 0.207-0.033 0.305 0 0.045 0.015 0.085 0.039 0.118 0.068s0.059 0.065 0.076 0.103c0.019 0.043 0.028 0.088 0.027 0.134zM13.565 11.669c0.001-0.036-0.006-0.073-0.019-0.107-0.011-0.030-0.030-0.057-0.054-0.080-0.024-0.022-0.053-0.039-0.085-0.051-0.071-0.023-0.15-0.023-0.222 0-0.032 0.011-0.061 0.029-0.085 0.051-0.025 0.023-0.043 0.050-0.054 0.080-0.026 0.070-0.026 0.145 0 0.214 0.011 0.030 0.030 0.057 0.054 0.080 0.024 0.022 0.053 0.039 0.085 0.050 0.072 0.023 0.15 0.023 0.222 0 0.032-0.011 0.061-0.028 0.085-0.050 0.024-0.023 0.042-0.051 0.054-0.080 0.013-0.035 0.020-0.071 0.019-0.107v0z"></path>
<path d="M14.461 11.782l0.011 0.024c0.004-0.009 0.008-0.016 0.012-0.024s0.008-0.016 0.013-0.024l0.256-0.398c0.005-0.007 0.010-0.011 0.015-0.012 0.007-0.002 0.014-0.002 0.021-0.002h0.076v0.648h-0.090v-0.476c0-0.006 0-0.013 0-0.020s-0-0.015 0-0.022l-0.258 0.404c-0.003 0.006-0.009 0.011-0.015 0.015s-0.014 0.005-0.022 0.005h-0.015c-0.008 0-0.015-0.002-0.022-0.005s-0.012-0.009-0.015-0.015l-0.265-0.406c0 0.008 0 0.015 0 0.023s0 0.015 0 0.021v0.476h-0.087v-0.647h0.076c0.007-0 0.014 0 0.021 0.002s0.011 0.007 0.014 0.012l0.262 0.399c0.005 0.007 0.010 0.015 0.013 0.023v0z"></path>
<path d="M15.426 11.749v0.243h-0.1v-0.647h0.224c0.042-0.001 0.084 0.004 0.125 0.014 0.032 0.008 0.063 0.022 0.088 0.040 0.022 0.018 0.039 0.039 0.050 0.063 0.012 0.026 0.018 0.054 0.017 0.083 0 0.028-0.006 0.057-0.019 0.083-0.012 0.025-0.031 0.047-0.054 0.065-0.026 0.019-0.056 0.034-0.089 0.043-0.039 0.011-0.080 0.016-0.121 0.015l-0.121-0.002zM15.426 11.68h0.121c0.026 0 0.053-0.003 0.078-0.010 0.021-0.006 0.040-0.015 0.056-0.028 0.015-0.012 0.027-0.027 0.034-0.043s0.012-0.036 0.012-0.054c0.001-0.018-0.002-0.036-0.010-0.053s-0.020-0.032-0.035-0.044c-0.038-0.026-0.087-0.038-0.135-0.035h-0.121v0.267z"></path>
<path d="M16.775 11.993h-0.079c-0.008 0-0.016-0.002-0.022-0.006s-0.010-0.009-0.013-0.015l-0.068-0.157h-0.343l-0.071 0.157c-0.003 0.006-0.007 0.011-0.013 0.015s-0.014 0.007-0.023 0.006h-0.079l0.301-0.648h0.104l0.305 0.648zM16.278 11.752h0.283l-0.119-0.264c-0.009-0.020-0.017-0.040-0.023-0.061l-0.012 0.034c-0.004 0.010-0.008 0.020-0.011 0.027l-0.118 0.263z"></path>
<path d="M17.209 11.348c0.006 0.003 0.011 0.007 0.015 0.012l0.439 0.488c0-0.008 0-0.015 0-0.023s0-0.015 0-0.021v-0.459h0.090v0.648h-0.050c-0.007 0-0.014-0.001-0.021-0.004s-0.012-0.007-0.016-0.012l-0.439-0.488c0 0.007 0 0.015 0 0.022s0 0.014 0 0.020v0.462h-0.090v-0.648h0.053c0.006-0 0.012 0.001 0.018 0.003v0z"></path>
<path d="M18.493 11.735v0.257h-0.1v-0.257l-0.277-0.39h0.090c0.008-0 0.015 0.002 0.022 0.006s0.010 0.009 0.013 0.015l0.174 0.252c0.007 0.011 0.013 0.021 0.018 0.030s0.009 0.018 0.013 0.027l0.013-0.028c0.005-0.010 0.011-0.020 0.017-0.030l0.171-0.253c0.003-0.005 0.008-0.010 0.013-0.014s0.014-0.007 0.022-0.006h0.091l-0.278 0.392z"></path>
<path d="M14.411 10.258c0.044 0.005 0.088 0.009 0.132 0.012 0.677-0.259 1.25-0.682 1.647-1.218s0.6-1.159 0.585-1.793l-0.746-0.638c0.152 0.675 0.081 1.372-0.205 2.014s-0.775 1.204-1.413 1.622v0z"></path>
<path d="M14.145 10.228l0.020 0.003c0.682-0.417 1.202-0.999 1.492-1.67s0.339-1.403 0.138-2.098l-1.063-0.908c0.43 0.747 0.603 1.582 0.499 2.409s-0.481 1.612-1.086 2.264v0z"></path>
<path d="M17.75 8.008c-0.181 0.696-0.619 1.324-1.251 1.791-0.184 0.137-0.383 0.259-0.594 0.364 0.514-0.129 0.987-0.357 1.381-0.667s0.701-0.693 0.895-1.12l-0.431-0.368z"></path>
<path d="M17.581 7.905l-0.614-0.524c-0.012 0.598-0.211 1.182-0.576 1.692s-0.884 0.927-1.502 1.208h0.003c0.138-0 0.275-0.007 0.412-0.021 0.578-0.201 1.088-0.522 1.485-0.933s0.669-0.899 0.792-1.422v0z"></path>
<path d="M14.234 5.172l-0.732-0.626c-0.655 0.216-1.218 0.596-1.615 1.090s-0.612 1.079-0.614 1.679v0c0.002 0.663 0.263 1.305 0.742 1.827s1.146 0.892 1.899 1.052c0.672-0.699 1.065-1.563 1.122-2.466s-0.223-1.798-0.802-2.556v0z"></path>
<path d="M19.273 7.809c-0.003-0.786-0.369-1.539-1.020-2.095s-1.532-0.869-2.452-0.871v0c-0.425-0-0.847 0.067-1.243 0.198l4.483 3.831c0.153-0.339 0.232-0.699 0.232-1.062v0z"></path>
</symbol>
<symbol id="icon-client4" viewBox="0 0 31 16">
<path d="M10.196 6.821h-0.001c-0.434 0-0.785 0.317-0.785 0.708v0c0 0.391 0.352 0.708 0.785 0.708h0.001c0.434 0 0.785-0.317 0.785-0.708v-0c0-0.391-0.352-0.708-0.785-0.708z"></path>
<path d="M15.993 6.595c-0.001-0.543-0.241-1.064-0.667-1.448s-1.003-0.6-1.606-0.602v0c-0.603 0.001-1.18 0.217-1.606 0.601s-0.666 0.905-0.667 1.448v2.995c0 0 4.546-0.457 4.547-2.995v-0z"></path>
<path d="M7.818 10.574c0.001 0.378 0.168 0.74 0.464 1.007s0.698 0.418 1.117 0.419c0.419-0.001 0.821-0.152 1.117-0.419s0.463-0.629 0.465-1.007v-2.084c0 0-3.163 0.318-3.163 2.084zM9.4 10.947c-0.082 0-0.162-0.022-0.23-0.063s-0.121-0.099-0.153-0.168-0.040-0.143-0.024-0.216c0.016-0.072 0.055-0.139 0.113-0.191s0.132-0.088 0.212-0.102c0.080-0.014 0.164-0.007 0.239 0.021s0.14 0.076 0.186 0.138c0.046 0.061 0.070 0.134 0.070 0.207 0 0.049-0.010 0.098-0.031 0.143s-0.051 0.087-0.090 0.122c-0.038 0.035-0.084 0.062-0.135 0.081s-0.104 0.029-0.159 0.029v-0.001z"></path>
<path d="M12.293 10.275v0.776h-0.16v-0.776h0.16zM12.601 10.607v0.125h-0.353v-0.125h0.353zM12.639 10.275v0.125h-0.39v-0.125h0.39zM13.369 10.645v0.037c0 0.059-0.008 0.112-0.024 0.159s-0.039 0.087-0.068 0.12c-0.029 0.033-0.064 0.058-0.104 0.075s-0.085 0.026-0.134 0.026c-0.049 0-0.093-0.009-0.134-0.026s-0.075-0.042-0.104-0.075c-0.029-0.033-0.052-0.073-0.069-0.12s-0.024-0.1-0.024-0.159v-0.037c0-0.059 0.008-0.112 0.024-0.159s0.039-0.087 0.068-0.12c0.029-0.033 0.064-0.058 0.104-0.076s0.085-0.026 0.134-0.026c0.049 0 0.094 0.009 0.134 0.026s0.075 0.043 0.104 0.076c0.029 0.033 0.052 0.073 0.068 0.12s0.025 0.099 0.025 0.159zM13.207 10.682v-0.038c0-0.041-0.004-0.077-0.011-0.109s-0.018-0.058-0.033-0.079-0.032-0.037-0.053-0.048c-0.021-0.011-0.045-0.017-0.072-0.017s-0.051 0.006-0.072 0.017c-0.021 0.011-0.038 0.027-0.053 0.048s-0.025 0.048-0.032 0.079c-0.007 0.031-0.011 0.067-0.011 0.109v0.038c0 0.041 0.004 0.077 0.011 0.109s0.018 0.058 0.033 0.079c0.015 0.021 0.032 0.037 0.053 0.048s0.045 0.017 0.072 0.017c0.027 0 0.051-0.006 0.072-0.017s0.039-0.027 0.053-0.048c0.014-0.022 0.025-0.048 0.032-0.079s0.011-0.068 0.011-0.109zM13.887 10.848c0-0.014-0.002-0.026-0.006-0.037s-0.011-0.022-0.022-0.031c-0.011-0.010-0.026-0.019-0.046-0.028s-0.046-0.019-0.077-0.029c-0.035-0.011-0.069-0.024-0.1-0.038s-0.059-0.031-0.083-0.050c-0.024-0.019-0.043-0.041-0.056-0.067s-0.020-0.055-0.020-0.088c0-0.032 0.007-0.062 0.021-0.088s0.034-0.049 0.060-0.068c0.026-0.019 0.056-0.034 0.091-0.044s0.074-0.015 0.116-0.015c0.057 0 0.107 0.010 0.15 0.031s0.076 0.049 0.099 0.085c0.024 0.036 0.036 0.077 0.036 0.123h-0.159c0-0.023-0.005-0.043-0.014-0.060s-0.023-0.031-0.043-0.041c-0.019-0.010-0.043-0.015-0.071-0.015-0.028 0-0.051 0.004-0.069 0.013s-0.032 0.019-0.042 0.034c-0.009 0.014-0.014 0.029-0.014 0.047 0 0.013 0.003 0.025 0.010 0.036s0.017 0.021 0.030 0.030 0.029 0.018 0.048 0.026c0.019 0.008 0.041 0.016 0.067 0.024 0.042 0.013 0.079 0.027 0.111 0.043s0.059 0.034 0.081 0.054c0.022 0.020 0.038 0.042 0.049 0.068s0.017 0.054 0.017 0.086c0 0.034-0.007 0.064-0.020 0.091s-0.032 0.049-0.057 0.068c-0.025 0.018-0.055 0.032-0.089 0.042s-0.073 0.014-0.116 0.014c-0.038 0-0.076-0.005-0.113-0.015s-0.071-0.026-0.102-0.046c-0.030-0.021-0.054-0.047-0.072-0.079s-0.027-0.070-0.027-0.113h0.16c0 0.024 0.004 0.045 0.011 0.061s0.018 0.030 0.031 0.040c0.014 0.010 0.030 0.018 0.049 0.022s0.040 0.007 0.063 0.007c0.028 0 0.050-0.004 0.068-0.012s0.031-0.019 0.040-0.033c0.009-0.014 0.013-0.029 0.013-0.047zM14.503 10.275v0.776h-0.159v-0.776h0.159zM14.741 10.275v0.125h-0.633v-0.125h0.633zM15.353 10.926v0.125h-0.413v-0.125h0.413zM14.992 10.275v0.776h-0.16v-0.776h0.16zM15.299 10.591v0.121h-0.359v-0.121h0.359zM15.352 10.275v0.125h-0.412v-0.125h0.412zM15.446 10.275h0.289c0.059 0 0.11 0.009 0.153 0.027s0.076 0.044 0.099 0.079 0.035 0.078 0.035 0.128c0 0.042-0.007 0.077-0.021 0.107s-0.034 0.054-0.059 0.074c-0.025 0.020-0.055 0.035-0.089 0.047l-0.051 0.027h-0.251l-0.001-0.125h0.187c0.028 0 0.051-0.005 0.070-0.015s0.032-0.024 0.042-0.042c0.010-0.018 0.014-0.038 0.014-0.062 0-0.025-0.005-0.046-0.014-0.064s-0.023-0.032-0.042-0.042-0.042-0.014-0.071-0.014h-0.129v0.65h-0.16v-0.776zM15.88 11.051l-0.177-0.346 0.169-0.001 0.179 0.339v0.007h-0.171zM16.718 10.775h-0.198v-0.125h0.198c0.031 0 0.055-0.005 0.075-0.015s0.033-0.025 0.042-0.043c0.009-0.018 0.013-0.039 0.013-0.061s-0.004-0.045-0.013-0.064c-0.009-0.020-0.023-0.036-0.042-0.048s-0.044-0.018-0.075-0.018h-0.142v0.65h-0.16v-0.776h0.302c0.061 0 0.113 0.011 0.156 0.033s0.077 0.052 0.1 0.090c0.023 0.038 0.035 0.082 0.035 0.132s-0.012 0.093-0.035 0.13c-0.023 0.037-0.056 0.065-0.1 0.085s-0.095 0.030-0.156 0.030zM17.64 10.926v0.125h-0.413v-0.125h0.413zM17.279 10.275v0.776h-0.16v-0.776h0.16zM17.586 10.591v0.121h-0.359v-0.121h0.359zM17.639 10.275v0.125h-0.412v-0.125h0.412zM18.091 10.275v0.776h-0.159v-0.776h0.159zM18.329 10.275v0.125h-0.633v-0.125h0.633zM18.941 10.926v0.125h-0.413v-0.125h0.413zM18.58 10.275v0.776h-0.16v-0.776h0.16zM18.887 10.591v0.121h-0.359v-0.121h0.359zM18.94 10.275v0.125h-0.412v-0.125h0.412zM19.034 10.275h0.289c0.059 0 0.11 0.009 0.153 0.027s0.076 0.044 0.099 0.079 0.035 0.078 0.035 0.128c0 0.042-0.007 0.077-0.021 0.107s-0.034 0.054-0.059 0.074c-0.025 0.020-0.055 0.035-0.089 0.047l-0.051 0.027h-0.251l-0.001-0.125h0.187c0.028 0 0.051-0.005 0.070-0.015s0.032-0.024 0.042-0.042c0.010-0.018 0.014-0.038 0.014-0.062 0-0.025-0.005-0.046-0.014-0.064s-0.023-0.032-0.042-0.042c-0.019-0.010-0.042-0.014-0.071-0.014h-0.129v0.65h-0.16v-0.776zM19.468 11.051l-0.177-0.346 0.169-0.001 0.179 0.339v0.007h-0.171zM20.137 10.848c0-0.014-0.002-0.026-0.006-0.037s-0.011-0.022-0.022-0.031c-0.011-0.010-0.026-0.019-0.046-0.028s-0.046-0.019-0.077-0.029c-0.035-0.011-0.069-0.024-0.1-0.038s-0.059-0.031-0.083-0.050c-0.024-0.019-0.043-0.041-0.057-0.067s-0.020-0.055-0.020-0.088c0-0.032 0.007-0.062 0.021-0.088s0.034-0.049 0.060-0.068c0.026-0.019 0.056-0.034 0.091-0.044s0.074-0.015 0.116-0.015c0.057 0 0.107 0.010 0.15 0.031s0.076 0.049 0.099 0.085c0.024 0.036 0.036 0.077 0.036 0.123h-0.159c0-0.023-0.005-0.043-0.014-0.060s-0.023-0.031-0.043-0.041c-0.019-0.010-0.043-0.015-0.071-0.015-0.028 0-0.051 0.004-0.069 0.013s-0.032 0.019-0.041 0.034c-0.009 0.014-0.014 0.029-0.014 0.047 0 0.013 0.003 0.025 0.010 0.036s0.017 0.021 0.030 0.030c0.013 0.009 0.029 0.018 0.048 0.026s0.041 0.016 0.067 0.024c0.042 0.013 0.079 0.027 0.111 0.043s0.059 0.034 0.081 0.054 0.038 0.042 0.049 0.068c0.011 0.025 0.016 0.054 0.016 0.086 0 0.034-0.007 0.064-0.020 0.091s-0.032 0.049-0.057 0.068c-0.025 0.018-0.054 0.032-0.089 0.042s-0.073 0.014-0.116 0.014c-0.038 0-0.076-0.005-0.113-0.015s-0.071-0.026-0.102-0.046c-0.030-0.021-0.054-0.047-0.073-0.079s-0.027-0.070-0.027-0.113h0.16c0 0.024 0.004 0.045 0.011 0.061s0.018 0.030 0.031 0.040c0.014 0.010 0.030 0.018 0.049 0.022s0.040 0.007 0.063 0.007c0.028 0 0.051-0.004 0.068-0.012s0.031-0.019 0.040-0.033c0.009-0.014 0.013-0.029 0.013-0.047z"></path>
</symbol>
<symbol id="icon-client5" viewBox="0 0 31 16">
<path d="M10.689 10.977c0.045 0.050 0.068 0.112 0.067 0.176 0.002 0.042-0.006 0.083-0.024 0.122s-0.045 0.073-0.080 0.1c-0.087 0.059-0.194 0.088-0.303 0.081h-0.532v-1.115h0.521c0.103-0.006 0.205 0.020 0.289 0.074 0.034 0.025 0.060 0.057 0.078 0.094s0.025 0.076 0.023 0.115c0.003 0.062-0.018 0.122-0.061 0.17-0.040 0.044-0.096 0.075-0.159 0.087 0.071 0.012 0.134 0.045 0.18 0.095zM10.066 10.809h0.223c0.051 0.003 0.101-0.010 0.142-0.037 0.017-0.014 0.030-0.031 0.038-0.049s0.012-0.039 0.010-0.059c0.002-0.020-0.002-0.040-0.010-0.059s-0.021-0.036-0.037-0.050c-0.042-0.028-0.094-0.041-0.146-0.038h-0.219v0.292zM10.452 11.236c0.018-0.014 0.032-0.031 0.041-0.051s0.013-0.041 0.012-0.062c0.001-0.022-0.003-0.043-0.012-0.063s-0.024-0.037-0.042-0.052c-0.044-0.029-0.097-0.043-0.151-0.040h-0.234v0.307h0.237c0.053 0.003 0.106-0.011 0.149-0.039z"></path>
<path d="M11.754 11.456l-0.29-0.436h-0.109v0.436h-0.249v-1.115h0.472c0.119-0.007 0.237 0.026 0.329 0.095 0.066 0.061 0.106 0.14 0.112 0.225s-0.021 0.168-0.077 0.237c-0.058 0.060-0.138 0.1-0.225 0.113l0.309 0.446h-0.271zM11.356 10.869h0.204c0.142 0 0.212-0.056 0.212-0.169 0.001-0.023-0.002-0.046-0.011-0.068s-0.023-0.041-0.041-0.058c-0.045-0.033-0.102-0.050-0.16-0.045h-0.206l0.002 0.339z"></path>
<path d="M13.117 11.232h-0.497l-0.088 0.224h-0.261l0.456-1.102h0.283l0.454 1.102h-0.261l-0.086-0.224zM13.050 11.063l-0.182-0.471-0.182 0.471h0.363z"></path>
<path d="M14.822 11.456h-0.247l-0.555-0.758v0.758h-0.247v-1.115h0.247l0.555 0.763v-0.763h0.247v1.115z"></path>
<path d="M16.235 11.189c-0.051 0.084-0.129 0.153-0.224 0.197-0.108 0.049-0.227 0.073-0.348 0.070h-0.44v-1.115h0.44c0.12-0.003 0.24 0.021 0.348 0.069 0.095 0.043 0.173 0.111 0.224 0.194 0.051 0.091 0.077 0.191 0.077 0.292s-0.027 0.202-0.077 0.293zM15.951 11.163c0.071-0.074 0.109-0.168 0.109-0.266s-0.039-0.192-0.109-0.266c-0.085-0.067-0.197-0.101-0.31-0.095h-0.172v0.722h0.172c0.113 0.006 0.224-0.028 0.31-0.095z"></path>
<path d="M13.272 4.139c0 0 3.194 1.086 3.126 2.656v2.657c0 0-3.192-1.086-3.125-2.657l-0.001-2.656z"></path>
<path d="M19.243 8.831c0.603-0.374 1.301-0.605 2.029-0.673v-0.832c-0.839 0.291-1.551 0.819-2.029 1.505z"></path>
<path d="M18.881 9.081c0.494-0.895 1.35-1.586 2.392-1.93v-2.397c0 0-4.549 1.546-4.452 3.783v3.783c0 0 0.203-0.069 0.522-0.199 0-0.121 0-0.243 0.015-0.365 0.094-1.039 0.643-2.001 1.525-2.676z"></path>
<path d="M18.448 10.487c0.024-0.262 0.077-0.522 0.159-0.775-0.549 0.583-0.882 1.305-0.951 2.067-0.007 0.072-0.010 0.144-0.012 0.218 0.258-0.112 0.559-0.251 0.875-0.415-0.081-0.36-0.105-0.729-0.071-1.095z"></path>
<path d="M18.629 10.5c-0.030 0.331-0.011 0.665 0.056 0.992 1.243-0.669 2.639-1.704 2.585-2.954v-0.109c-0.888 0.089-1.719 0.439-2.365 0.995-0.151 0.344-0.245 0.707-0.277 1.076z"></path>
</symbol>
<symbol id="icon-client6" viewBox="0 0 31 16">
<path d="M15.551 7.899c-0.081-0.107-0.119-0.234-0.11-0.362v-0.525c0-0.161 0.037-0.283 0.11-0.367s0.199-0.125 0.376-0.125c0.167 0 0.286 0.036 0.356 0.107 0.077 0.091 0.114 0.202 0.105 0.314v0.123h-0.299v-0.125c0.001-0.041-0.002-0.082-0.009-0.122-0.004-0.028-0.019-0.053-0.043-0.073-0.031-0.021-0.069-0.031-0.108-0.028-0.041-0.003-0.082 0.008-0.114 0.030-0.026 0.021-0.043 0.050-0.050 0.080-0.009 0.043-0.013 0.086-0.012 0.13v0.637c-0.005 0.061 0.008 0.123 0.038 0.179 0.015 0.019 0.036 0.034 0.060 0.043s0.051 0.013 0.077 0.010c0.038 0.003 0.076-0.008 0.106-0.029 0.024-0.021 0.040-0.048 0.045-0.077 0.007-0.042 0.010-0.085 0.009-0.128v-0.129h0.299v0.118c0.008 0.117-0.028 0.233-0.103 0.33-0.069 0.078-0.186 0.117-0.358 0.117s-0.302-0.042-0.376-0.128z"></path>
<path d="M16.796 7.904c-0.076-0.082-0.113-0.201-0.113-0.358v-0.552c0-0.156 0.038-0.274 0.113-0.354s0.202-0.12 0.379-0.12c0.176 0 0.301 0.040 0.377 0.12s0.114 0.198 0.114 0.354v0.552c0 0.156-0.038 0.276-0.115 0.358s-0.202 0.123-0.376 0.123-0.303-0.042-0.379-0.123zM17.314 7.772c0.027-0.051 0.039-0.107 0.036-0.163v-0.676c0.003-0.055-0.009-0.11-0.035-0.16-0.015-0.019-0.036-0.035-0.061-0.044s-0.052-0.013-0.079-0.009c-0.027-0.003-0.054 0-0.079 0.009s-0.046 0.025-0.061 0.044c-0.027 0.050-0.040 0.105-0.036 0.16v0.679c-0.004 0.056 0.009 0.112 0.036 0.163 0.017 0.017 0.039 0.031 0.063 0.041s0.050 0.014 0.077 0.014 0.053-0.005 0.077-0.014c0.024-0.009 0.046-0.023 0.063-0.041v-0.003z"></path>
<path d="M18.025 6.536h0.322l0.242 1.019 0.248-1.019h0.313l0.032 1.471h-0.232l-0.025-1.022-0.239 1.022h-0.186l-0.248-1.026-0.023 1.026h-0.234l0.029-1.471z"></path>
<path d="M19.542 6.536h0.501c0.289 0 0.433 0.139 0.433 0.418 0 0.267-0.152 0.4-0.456 0.4h-0.171v0.654h-0.309l0.002-1.471zM19.971 7.164c0.031 0.003 0.062 0.001 0.091-0.007s0.056-0.021 0.079-0.039c0.035-0.050 0.051-0.108 0.045-0.166 0.002-0.045-0.003-0.090-0.015-0.134-0.005-0.015-0.012-0.028-0.023-0.040s-0.024-0.022-0.039-0.030c-0.043-0.018-0.090-0.026-0.138-0.023h-0.12v0.44h0.12z"></path>
<path d="M20.923 6.536h0.332l0.341 1.471h-0.289l-0.067-0.339h-0.297l-0.069 0.339h-0.293l0.341-1.471zM21.207 7.497l-0.116-0.617-0.116 0.617h0.231z"></path>
<path d="M21.872 6.536h0.217l0.415 0.839v-0.839h0.257v1.471h-0.206l-0.417-0.876v0.876h-0.265l0.001-1.471z"></path>
<path d="M23.362 7.446l-0.345-0.908h0.29l0.21 0.583 0.197-0.583h0.284l-0.341 0.908v0.561h-0.297v-0.561z"></path>
<path d="M16.029 8.65v0.077h-0.253v0.598h-0.106v-0.598h-0.254v-0.077h0.612z"></path>
<path d="M16.82 9.324h-0.082c-0.008 0-0.016-0.002-0.023-0.006s-0.011-0.009-0.014-0.015l-0.073-0.16h-0.35l-0.073 0.16c-0.002 0.007-0.006 0.013-0.011 0.018-0.006 0.004-0.015 0.007-0.023 0.006h-0.082l0.31-0.675h0.108l0.313 0.672zM16.308 9.074h0.292l-0.124-0.275c-0.009-0.021-0.017-0.042-0.023-0.064-0.004 0.013-0.008 0.025-0.012 0.036l-0.011 0.028-0.123 0.274z"></path>
<path d="M17.354 9.258c0.019 0.001 0.039 0.001 0.058 0 0.017-0.001 0.033-0.004 0.050-0.008 0.015-0.003 0.030-0.007 0.045-0.012s0.027-0.011 0.041-0.017v-0.152h-0.124c-0.003 0-0.006-0-0.009-0.001s-0.005-0.002-0.008-0.004c-0.002-0.002-0.004-0.003-0.005-0.006s-0.002-0.004-0.001-0.007v-0.052h0.24v0.259c-0.020 0.012-0.040 0.023-0.062 0.032s-0.045 0.017-0.069 0.023c-0.025 0.006-0.051 0.011-0.077 0.014-0.030 0.003-0.060 0.004-0.090 0.004-0.053 0-0.106-0.008-0.156-0.025-0.046-0.016-0.088-0.040-0.124-0.071s-0.062-0.067-0.080-0.107c-0.020-0.045-0.029-0.092-0.028-0.14-0.001-0.048 0.009-0.096 0.028-0.141 0.018-0.040 0.045-0.076 0.080-0.107s0.077-0.054 0.124-0.070c0.053-0.017 0.109-0.026 0.166-0.025 0.029-0 0.058 0.002 0.086 0.006 0.025 0.004 0.050 0.009 0.074 0.017 0.022 0.007 0.042 0.016 0.062 0.027s0.037 0.022 0.054 0.035l-0.030 0.042c-0.002 0.004-0.006 0.007-0.010 0.009s-0.009 0.003-0.014 0.004c-0.007-0-0.014-0.002-0.019-0.005-0.009-0.004-0.019-0.010-0.030-0.016-0.013-0.007-0.027-0.013-0.041-0.018-0.018-0.006-0.038-0.011-0.057-0.015-0.026-0.004-0.052-0.006-0.079-0.006-0.041-0-0.081 0.006-0.119 0.019-0.034 0.012-0.065 0.030-0.091 0.053s-0.045 0.053-0.058 0.084c-0.028 0.073-0.028 0.152 0 0.225 0.014 0.032 0.035 0.061 0.062 0.085 0.025 0.023 0.056 0.041 0.090 0.053 0.039 0.012 0.081 0.016 0.123 0.013z"></path>
<path d="M18.341 9.247h0.338v0.077h-0.441v-0.675h0.106l-0.003 0.598z"></path>
<path d="M19.030 9.324h-0.106v-0.675h0.106v0.675z"></path>
<path d="M19.424 8.653c0.006 0.003 0.012 0.007 0.016 0.012l0.453 0.509c-0.001-0.008-0.001-0.016 0-0.024s0-0.015 0-0.022v-0.481h0.092v0.677h-0.053c-0.008 0.001-0.016-0.001-0.023-0.004s-0.012-0.008-0.017-0.013l-0.452-0.508c0 0.008 0 0.015 0 0.023s0 0.014 0 0.021v0.481h-0.089v-0.675h0.055c0.006 0 0.012 0.001 0.017 0.003z"></path>
<path d="M20.764 8.65v0.074h-0.375v0.223h0.304v0.072h-0.304v0.23h0.375v0.074h-0.484v-0.673h0.484z"></path>
<path d="M9.672 4.483l4.7 1.152v4.036l-4.7-1.151v-4.036zM9.37 4.139v4.576l5.303 1.3v-4.576l-5.303-1.3z"></path>
<path d="M12.212 12.139l-5.303-1.301v-4.576l5.303 1.3v4.576z"></path>
<path d="M9.458 4.432l4.639 1.137-1.973 1.703-4.64-1.138 1.973-1.702zM9.37 4.139l-2.461 2.124 5.303 1.3 2.461-2.124-5.303-1.3z"></path>
<path d="M12.511 11.882l2.162-1.866-2.162-0.53v2.397z"></path>
</symbol>
<symbol id="icon-facebook" viewBox="0 0 16 16">
<path d="M10.665 2.657h1.461v-2.544c-0.252-0.035-1.119-0.113-2.128-0.113-2.106 0-3.549 1.325-3.549 3.759v2.241h-2.324v2.844h2.324v7.156h2.849v-7.155h2.23l0.354-2.844h-2.585v-1.959c0.001-0.822 0.222-1.385 1.367-1.385z"></path>
</symbol>
<symbol id="icon-instagram" viewBox="0 0 16 16">
<path d="M15.984 4.704c-0.037-0.85-0.175-1.435-0.372-1.941-0.203-0.538-0.516-1.019-0.925-1.419-0.4-0.406-0.885-0.722-1.416-0.922-0.509-0.197-1.091-0.334-1.941-0.372-0.857-0.041-1.128-0.050-3.301-0.050s-2.444 0.009-3.298 0.047c-0.85 0.037-1.435 0.175-1.941 0.372-0.538 0.203-1.019 0.516-1.419 0.925-0.406 0.4-0.722 0.885-0.922 1.416-0.197 0.51-0.334 1.091-0.372 1.941-0.041 0.856-0.050 1.128-0.050 3.301s0.009 2.444 0.047 3.298c0.037 0.85 0.175 1.435 0.372 1.941 0.203 0.538 0.519 1.019 0.925 1.419 0.4 0.406 0.885 0.722 1.416 0.922 0.51 0.197 1.091 0.335 1.941 0.372 0.853 0.038 1.125 0.047 3.298 0.047s2.444-0.009 3.298-0.047c0.85-0.037 1.435-0.175 1.941-0.372 1.075-0.416 1.925-1.266 2.341-2.341 0.197-0.509 0.334-1.091 0.372-1.941 0.038-0.853 0.047-1.125 0.047-3.298s-0.003-2.444-0.041-3.298zM14.543 11.236c-0.034 0.781-0.166 1.203-0.275 1.485-0.269 0.697-0.822 1.25-1.519 1.519-0.281 0.109-0.706 0.241-1.485 0.275-0.844 0.038-1.097 0.047-3.232 0.047s-2.391-0.009-3.232-0.047c-0.781-0.034-1.203-0.166-1.485-0.275-0.347-0.128-0.663-0.331-0.919-0.597-0.266-0.259-0.469-0.572-0.597-0.919-0.109-0.281-0.241-0.706-0.275-1.485-0.038-0.844-0.047-1.097-0.047-3.232s0.009-2.391 0.047-3.232c0.034-0.781 0.166-1.203 0.275-1.485 0.128-0.347 0.331-0.663 0.6-0.919 0.259-0.266 0.572-0.469 0.919-0.597 0.281-0.109 0.706-0.241 1.485-0.275 0.844-0.037 1.097-0.047 3.232-0.047 2.138 0 2.391 0.009 3.232 0.047 0.781 0.034 1.203 0.166 1.485 0.275 0.347 0.128 0.663 0.331 0.919 0.597 0.266 0.259 0.469 0.572 0.597 0.919 0.109 0.281 0.241 0.706 0.275 1.485 0.037 0.844 0.047 1.097 0.047 3.232s-0.009 2.385-0.047 3.229z"></path>
<path d="M8.030 3.891c-2.269 0-4.11 1.841-4.11 4.11s1.841 4.11 4.11 4.11c2.269 0 4.11-1.841 4.11-4.11s-1.841-4.11-4.11-4.11zM8.030 10.668c-1.472 0-2.666-1.194-2.666-2.666s1.194-2.666 2.666-2.666c1.472 0 2.666 1.194 2.666 2.666s-1.194 2.666-2.666 2.666v0z"></path>
<path d="M13.262 3.729c0 0.53-0.43 0.96-0.96 0.96s-0.96-0.43-0.96-0.96c0-0.53 0.43-0.96 0.96-0.96s0.96 0.43 0.96 0.96v0z"></path>
</symbol>
<symbol id="icon-linkedin" viewBox="0 0 16 16">
<path d="M15.996 16v-0.001h0.004v-5.868c0-2.871-0.618-5.082-3.974-5.082-1.613 0-2.696 0.885-3.138 1.725h-0.047v-1.457h-3.182v10.682h3.313v-5.289c0-1.393 0.264-2.739 1.989-2.739 1.699 0 1.725 1.589 1.725 2.829v5.201h3.31z"></path>
<path d="M0.264 5.318h3.317v10.682h-3.317v-10.682z"></path>
<path d="M1.921-0c-1.061 0-1.921 0.861-1.921 1.921s0.861 1.939 1.921 1.939c1.061 0 1.921-0.879 1.921-1.939s-0.861-1.921-1.921-1.921v0z"></path>
</symbol>
<symbol id="icon-twitter" viewBox="0 0 16 16">
<path d="M16 3.039c-0.595 0.261-1.229 0.434-1.89 0.518 0.68-0.406 1.199-1.044 1.443-1.813-0.634 0.378-1.334 0.645-2.080 0.794-0.602-0.641-1.46-1.038-2.396-1.038-1.816 0-3.278 1.474-3.278 3.281 0 0.26 0.022 0.51 0.076 0.748-2.727-0.133-5.14-1.44-6.761-3.431-0.283 0.491-0.449 1.053-0.449 1.658 0 1.136 0.585 2.143 1.457 2.726-0.527-0.010-1.044-0.163-1.482-0.404 0 0.010 0 0.023 0 0.036 0 1.594 1.137 2.918 2.628 3.223-0.267 0.073-0.558 0.108-0.86 0.108-0.21 0-0.422-0.012-0.621-0.056 0.425 1.299 1.631 2.254 3.065 2.285-1.116 0.873-2.533 1.399-4.067 1.399-0.269 0-0.527-0.012-0.785-0.045 1.453 0.937 3.175 1.472 5.032 1.472 6.036 0 9.336-5 9.336-9.334 0-0.145-0.005-0.285-0.012-0.424 0.651-0.462 1.198-1.039 1.644-1.703z"></path>
</symbol>
<symbol id="icon-icon1" viewBox="0 0 75 32">
<path fill="#f4f4fd" style="fill: var(--color1, #f4f4fd)" d="M1.143 0h73.143c0.631 0 1.143 0.512 1.143 1.143v29.714c0 0.631-0.512 1.143-1.143 1.143h-73.143c-0.631 0-1.143-0.512-1.143-1.143v-29.714c0-0.631 0.512-1.143 1.143-1.143z"></path>
<path fill="#2e2f42" style="fill: var(--color3, #2e2f42)" d="M46.156 19.484l-4.825-4.86 0.535-2.637c0.138 0.054 0.285 0.082 0.433 0.083h0.004c0.681 0.008 1.24-0.538 1.248-1.219s-0.538-1.24-1.219-1.248c-0.681-0.008-1.24 0.538-1.248 1.219-0.002 0.146 0.022 0.291 0.071 0.428l-2.834 0.346-4.623-4.647c-0.057-0.058-0.134-0.091-0.215-0.091-0.080 0-0.157 0.032-0.213 0.089l-0.864 0.859c-0.119 0.119-0.119 0.312 0 0.431l0.465 0.472c-1.802 3.313-1.217 7.416 1.44 10.093 0.024 0.023 0.053 0.042 0.083 0.056-0.019 0.103-0.029 0.208-0.030 0.313v3.535h-3.657c-0.841 0.001-1.523 0.683-1.524 1.524v0.61c0 0.168 0.137 0.305 0.305 0.305h14.019c0.168 0 0.305-0.136 0.305-0.305v-0.61c-0.001-0.841-0.683-1.523-1.524-1.524h-3.657v-1.567c0.573 0.12 1.157 0.181 1.742 0.183 1.405-0.002 2.787-0.352 4.023-1.019l0.467 0.47c0.057 0.058 0.134 0.091 0.215 0.091 0.080-0 0.157-0.032 0.213-0.089l0.864-0.859c0.119-0.119 0.119-0.312 0-0.431zM41.874 10.419c0.239-0.237 0.625-0.236 0.862 0.002s0.236 0.625-0.003 0.862c-0.114 0.114-0.269 0.177-0.43 0.177h-0.002c-0.337-0.002-0.608-0.276-0.606-0.613 0.001-0.161 0.065-0.315 0.18-0.429h-0.001zM41.157 12.421l-0.342 1.683-0.672-0.676 1.014-1.008zM40.811 11.906l-1.097 1.091-0.849-0.853 1.946-0.237zM42.288 23.314c0.505 0 0.914 0.409 0.914 0.914v0.305h-13.409v-0.305c0-0.505 0.409-0.914 0.914-0.914h11.581zM38.021 22.095v0.61h-3.048v-0.61h3.048zM34.974 21.486v-2.316c0-0.739 0.684-1.341 1.524-1.341s1.524 0.602 1.524 1.341v2.316h-3.048zM38.631 20.517v-1.347c0-1.075-0.957-1.95-2.133-1.95-0.761-0.012-1.472 0.375-1.875 1.021-2.319-2.442-2.841-6.083-1.302-9.078l10.63 10.691c-1.641 0.835-3.523 1.070-5.319 0.665zM45.082 20.126l-12.033-12.103 0.431-0.43 4.534 4.56c0.002 0 0.003 0.004 0.006 0.005l7.494 7.538-0.433 0.43z"></path>
<path fill="#4d5ae5" style="fill: var(--color2, #4d5ae5)" d="M36.5 18.438h-0.003c-0.505-0.001-0.915 0.408-0.915 0.913s0.408 0.915 0.913 0.916h0.003c0.505 0.001 0.915-0.408 0.916-0.913s-0.408-0.915-0.913-0.916zM36.714 19.568c-0.057 0.057-0.135 0.089-0.216 0.089-0.168-0.001-0.304-0.138-0.303-0.306 0.001-0.081 0.033-0.158 0.090-0.215s0.133-0.088 0.213-0.089c0.169 0.001 0.304 0.138 0.303 0.306-0.001 0.081-0.033 0.158-0.090 0.215h0.003z"></path>
</symbol>
<symbol id="icon-icon2" viewBox="0 0 75 32">
<path fill="#f4f4fd" style="fill: var(--color1, #f4f4fd)" d="M1.143 0h73.143c0.631 0 1.143 0.512 1.143 1.143v29.714c0 0.631-0.512 1.143-1.143 1.143h-73.143c-0.631 0-1.143-0.512-1.143-1.143v-29.714c0-0.631 0.512-1.143 1.143-1.143z"></path>
<path fill="#2e2f42" style="fill: var(--color3, #2e2f42)" d="M46.455 15.601c-0.001-4.83-3.917-8.745-8.747-8.744s-8.745 3.917-8.744 8.747c0.001 3.805 2.461 7.172 6.085 8.329 0.035 0.011 0.071 0.016 0.107 0.016 0.069-0 0.137-0.019 0.196-0.054 0.077-0.046 0.135-0.118 0.162-0.204l2.209-7c0.604-0.003 1.091-0.495 1.087-1.099s-0.495-1.091-1.099-1.088c-0.162 0.001-0.323 0.038-0.469 0.109l-2.918-2.918c-0.145-0.14-0.375-0.136-0.515 0.009-0.137 0.141-0.137 0.365 0 0.506l2.916 2.919c-0.224 0.457-0.096 1.008 0.306 1.319l-2.104 6.67c-4.159-1.532-6.288-6.145-4.756-10.304s6.145-6.288 10.304-4.756c4.159 1.532 6.288 6.145 4.756 10.304-0.749 2.032-2.286 3.675-4.264 4.556l-0.227-1.071c-0.041-0.197-0.235-0.323-0.432-0.281-0.062 0.013-0.12 0.042-0.167 0.085l-2.193 1.957c-0.151 0.134-0.164 0.364-0.030 0.514 0.044 0.049 0.099 0.085 0.162 0.105l2.799 0.893c0.191 0.061 0.397-0.044 0.458-0.235 0.019-0.061 0.023-0.125 0.010-0.187l-0.223-1.051c3.237-1.365 5.338-4.538 5.331-8.051zM37.71 15.236c0.201 0 0.365 0.163 0.365 0.364s-0.163 0.364-0.365 0.364-0.364-0.163-0.364-0.364c0-0.201 0.163-0.364 0.364-0.364zM38.91 23.73l1.248-1.113 0.345 1.623-1.593-0.51z"></path>
<path fill="#4d5ae5" style="fill: var(--color2, #4d5ae5)" d="M37.345 8.677v0.729c0 0.201 0.163 0.364 0.364 0.364s0.365-0.163 0.365-0.364v-0.729c0-0.201-0.163-0.364-0.365-0.364s-0.364 0.163-0.364 0.364z"></path>
<path fill="#4d5ae5" style="fill: var(--color2, #4d5ae5)" d="M30.786 15.236c-0.201 0-0.364 0.163-0.364 0.364s0.163 0.364 0.364 0.364h0.729c0.201 0 0.364-0.163 0.364-0.364s-0.163-0.364-0.364-0.364h-0.729z"></path>
<path fill="#4d5ae5" style="fill: var(--color2, #4d5ae5)" d="M44.633 15.965c0.201 0 0.365-0.163 0.365-0.364s-0.163-0.364-0.365-0.364h-0.729c-0.201 0-0.364 0.163-0.364 0.364s0.163 0.364 0.364 0.364h0.729z"></path>
</symbol>
<symbol id="icon-icon3" viewBox="0 0 75 32">
<path fill="#f4f4fd" style="fill: var(--color1, #f4f4fd)" d="M1.143 0h73.143c0.631 0 1.143 0.512 1.143 1.143v29.714c0 0.631-0.512 1.143-1.143 1.143h-73.143c-0.631 0-1.143-0.512-1.143-1.143v-29.714c0-0.631 0.512-1.143 1.143-1.143z"></path>
<path fill="#4d5ae5" style="fill: var(--color2, #4d5ae5)" d="M37.1 15.408h0.609v2.741h-0.609v-2.741z"></path>
<path fill="#4d5ae5" style="fill: var(--color2, #4d5ae5)" d="M39.537 16.627h0.609v1.523h-0.609v-1.523z"></path>
<path fill="#4d5ae5" style="fill: var(--color2, #4d5ae5)" d="M34.663 17.541h0.609v0.609h-0.609v-0.609z"></path>
<path fill="#4d5ae5" style="fill: var(--color2, #4d5ae5)" d="M32.836 17.236h0.609v0.914h-0.609v-0.914z"></path>
<path fill="#2e2f42" style="fill: var(--color3, #2e2f42)" d="M29.485 23.023h14.621c0.505 0 0.914-0.409 0.914-0.914v-1.218c0-0.505-0.409-0.914-0.914-0.914h-0.305v-7.596l1.73-1.639c0.402 0.198 0.888 0.078 1.151-0.285s0.226-0.862-0.087-1.182c-0.313-0.32-0.812-0.368-1.18-0.113s-0.499 0.738-0.31 1.144l-1.304 1.236v-0.703c0-0.505-0.409-0.914-0.914-0.914h-12.184c-0.505 0-0.914 0.409-0.914 0.914v9.138h-0.305c-0.505 0-0.914 0.409-0.914 0.914v1.218c0 0.505 0.409 0.914 0.914 0.914zM45.934 9.621c0.168 0 0.305 0.136 0.305 0.305s-0.136 0.305-0.305 0.305c-0.168 0-0.305-0.136-0.305-0.305s0.136-0.305 0.305-0.305zM30.399 10.839c0-0.168 0.136-0.305 0.305-0.305h12.184c0.168 0 0.305 0.136 0.305 0.305v1.279l-0.609 0.579v-1.249c0-0.168-0.136-0.305-0.305-0.305h-10.966c-0.168 0-0.305 0.136-0.305 0.305v7.615c0 0.168 0.136 0.305 0.305 0.305h10.966c0.168 0 0.305-0.136 0.305-0.305v-5.528l0.609-0.577v7.019h-12.793v-9.138zM33.141 14.799c-0.412-0.001-0.774 0.273-0.884 0.671s0.060 0.819 0.415 1.029c0.354 0.21 0.806 0.157 1.102-0.129l1.059 0.531c0.123 0.062 0.272 0.033 0.364-0.070l2.251-2.532 2.213 1.658c0.119 0.089 0.285 0.079 0.392-0.022l1.923-1.822v4.646h-10.357v-7.006h10.357v1.52l-2.155 2.041-2.231-1.673c-0.127-0.095-0.305-0.077-0.41 0.041l-2.282 2.567-0.853-0.427c0.006-0.037 0.010-0.073 0.012-0.111 0-0.505-0.409-0.914-0.914-0.914zM33.445 15.713c0 0.168-0.137 0.305-0.305 0.305s-0.305-0.136-0.305-0.305 0.136-0.305 0.305-0.305c0.168 0 0.305 0.136 0.305 0.305zM35.273 20.587h3.046v0.305c0 0.168-0.136 0.305-0.305 0.305h-2.437c-0.168 0-0.305-0.136-0.305-0.305v-0.305zM29.181 20.891c0-0.168 0.137-0.305 0.305-0.305h5.178v0.305c0 0.505 0.409 0.914 0.914 0.914h2.437c0.505 0 0.914-0.409 0.914-0.914v-0.305h5.178c0.168 0 0.305 0.136 0.305 0.305v1.218c0 0.168-0.137 0.305-0.305 0.305h-14.621c-0.168 0-0.305-0.136-0.305-0.305v-1.218z"></path>
</symbol>
<symbol id="icon-icon4" viewBox="0 0 75 32">
<path fill="#f4f4fd" style="fill: var(--color1, #f4f4fd)" d="M1.143 0h73.143c0.631 0 1.143 0.512 1.143 1.143v29.714c0 0.631-0.512 1.143-1.143 1.143h-73.143c-0.631 0-1.143-0.512-1.143-1.143v-29.714c0-0.631 0.512-1.143 1.143-1.143z"></path>
<path fill="#4d5ae5" style="fill: var(--color2, #4d5ae5)" d="M46.842 9.442c-0.036-0.11-0.131-0.19-0.246-0.207l-1.091-0.159-0.489-0.989c-0.103-0.208-0.444-0.208-0.547 0l-0.489 0.989-1.092 0.159c-0.115 0.017-0.21 0.097-0.246 0.207s-0.006 0.232 0.077 0.312l0.79 0.77-0.187 1.087c-0.019 0.114 0.027 0.23 0.121 0.298 0.095 0.069 0.219 0.077 0.321 0.023l0.977-0.514 0.977 0.514c0.044 0.023 0.093 0.035 0.142 0.035 0.063 0 0.126-0.020 0.179-0.058 0.094-0.068 0.141-0.184 0.121-0.298l-0.186-1.087 0.79-0.77c0.083-0.081 0.113-0.202 0.077-0.312zM45.435 10.201c-0.071 0.070-0.105 0.171-0.087 0.27l0.109 0.637-0.572-0.3c-0.045-0.024-0.093-0.035-0.142-0.035s-0.097 0.012-0.142 0.035l-0.572 0.3 0.109-0.637c0.017-0.099-0.016-0.2-0.087-0.27l-0.463-0.451 0.639-0.093c0.099-0.014 0.185-0.077 0.229-0.167l0.286-0.579 0.286 0.579c0.045 0.090 0.13 0.152 0.229 0.167l0.639 0.093-0.462 0.451z"></path>
<path fill="#4d5ae5" style="fill: var(--color2, #4d5ae5)" d="M43.505 18.584h-0.609v0.61h0.609v-0.61z"></path>
<path fill="#4d5ae5" style="fill: var(--color2, #4d5ae5)" d="M43.505 19.803h-0.609v0.61h0.609v-0.61z"></path>
<path fill="#4d5ae5" style="fill: var(--color2, #4d5ae5)" d="M44.114 19.194h-0.609v0.61h0.609v-0.61z"></path>
<path fill="#4d5ae5" style="fill: var(--color2, #4d5ae5)" d="M42.895 19.194h-0.61v0.61h0.61v-0.61z"></path>
<path fill="#4d5ae5" style="fill: var(--color2, #4d5ae5)" d="M41.371 21.937h-0.609v0.61h0.609v-0.61z"></path>
<path fill="#4d5ae5" style="fill: var(--color2, #4d5ae5)" d="M41.371 23.156h-0.609v0.61h0.609v-0.61z"></path>
<path fill="#4d5ae5" style="fill: var(--color2, #4d5ae5)" d="M41.981 22.546h-0.61v0.61h0.61v-0.61z"></path>
<path fill="#4d5ae5" style="fill: var(--color2, #4d5ae5)" d="M40.762 22.546h-0.61v0.61h0.61v-0.61z"></path>
<path fill="#4d5ae5" style="fill: var(--color2, #4d5ae5)" d="M37.714 20.718h-0.609v0.61h0.609v-0.61z"></path>
<path fill="#4d5ae5" style="fill: var(--color2, #4d5ae5)" d="M37.714 21.937h-0.609v0.61h0.609v-0.61z"></path>
<path fill="#4d5ae5" style="fill: var(--color2, #4d5ae5)" d="M38.324 21.327h-0.609v0.61h0.609v-0.61z"></path>
<path fill="#4d5ae5" style="fill: var(--color2, #4d5ae5)" d="M37.105 21.327h-0.61v0.61h0.61v-0.61z"></path>
<path fill="#4d5ae5" style="fill: var(--color2, #4d5ae5)" d="M31.924 10.355h-0.609v0.61h0.609v-0.61z"></path>
<path fill="#4d5ae5" style="fill: var(--color2, #4d5ae5)" d="M31.924 11.575h-0.609v0.61h0.609v-0.61z"></path>
<path fill="#4d5ae5" style="fill: var(--color2, #4d5ae5)" d="M32.533 10.965h-0.609v0.61h0.609v-0.61z"></path>
<path fill="#4d5ae5" style="fill: var(--color2, #4d5ae5)" d="M31.314 10.965h-0.61v0.61h0.61v-0.61z"></path>
<path fill="#2e2f42" style="fill: var(--color3, #2e2f42)" d="M42.694 14.948c-0.164-0.222-0.405-0.364-0.679-0.403-0.275-0.039-0.546 0.033-0.766 0.201l-0.715 0.549-1.085 0.81-0.776-0.309c1.383-0.621 2.351-2.005 2.351-3.611 0-2.185-1.784-3.962-3.978-3.962s-3.978 1.777-3.978 3.962c0 0.792 0.237 1.528 0.64 2.148l-1.579-0.014c-0.001 0-0.002 0-0.003 0-0.005 0-0.009 0.002-0.013 0.003-0.030 0.001-0.060 0.007-0.089 0.018-0.007 0.003-0.015 0.004-0.022 0.008-0.003 0.002-0.007 0.002-0.011 0.004l-1.847 0.912c-0 0-0.001 0-0.001 0l-1.082 0.52c-0.012 0.005-0.024 0.012-0.036 0.020-0.431 0.287-0.578 0.851-0.342 1.312 0.126 0.245 0.34 0.425 0.603 0.508 0.101 0.032 0.205 0.047 0.308 0.047 0.165 0 0.329-0.041 0.479-0.121l0.793-0.422 1.294-0.668 0.775-0.005-3.11 3.095c-0 0-0.001 0-0.001 0.001l-0.765 0.762c-0.181 0.18-0.28 0.418-0.28 0.673s0.099 0.493 0.28 0.674c0.185 0.185 0.43 0.277 0.674 0.277s0.488-0.093 0.675-0.277l0.751-0.748 0.995-0.743 0.515 0.513-1.007 1.002c-0 0-0.001 0-0.001 0.001l-0.765 0.762c-0.181 0.18-0.28 0.418-0.28 0.673s0.099 0.493 0.28 0.674c0.186 0.185 0.43 0.277 0.674 0.277s0.489-0.093 0.674-0.277l1.99-1.981c0-0 0-0.001 0.001-0.001l0.577-0.571-0.002-0.002c0.004-0.004 0.009-0.005 0.013-0.009l2.952-3.233 1.983 0.282c0.014 0.002 0.029 0.003 0.043 0.003 0.037 0 0.073-0.009 0.107-0.022 0.010-0.004 0.019-0.009 0.028-0.013 0.011-0.006 0.023-0.009 0.033-0.015l1.836-1.219c0.007-0.005 0.010-0.012 0.017-0.017s0.016-0.008 0.023-0.015l0.727-0.681c0.378-0.354 0.43-0.934 0.121-1.35zM29.789 17.012c-0.099 0.053-0.211 0.064-0.319 0.030-0.107-0.033-0.193-0.106-0.244-0.204-0.092-0.179-0.039-0.397 0.122-0.515l0.751-0.361 0.181 0.528 0.076 0.222-0.567 0.301zM31.787 15.967l-0.885 0.457-0.146-0.427-0.105-0.307 1.158-0.572-0.023 0.848zM40.415 12.184c0 0.525-0.125 1.020-0.342 1.463l-2.389-1.085c-0.025-0.328-0.195-0.614-0.45-0.793l0.837-2.777c1.359 0.432 2.345 1.7 2.345 3.193zM33.679 12.184c0-1.848 1.511-3.352 3.368-3.352 0.145 0 0.286 0.012 0.426 0.030l-0.818 2.716c-0.011-0-0.021-0.003-0.033-0.003-0.59 0-1.070 0.479-1.070 1.067s0.48 1.067 1.070 1.067c0.397 0 0.74-0.219 0.925-0.54l2.207 1.003c-0.614 0.826-1.597 1.366-2.707 1.366-1.857 0-3.368-1.504-3.368-3.352zM37.083 12.641c0 0.252-0.207 0.457-0.461 0.457s-0.461-0.205-0.461-0.457 0.207-0.457 0.461-0.457c0.254 0 0.461 0.205 0.461 0.457zM29.98 21.226c-0.135 0.134-0.354 0.134-0.488 0-0.065-0.065-0.101-0.151-0.101-0.242s0.036-0.177 0.101-0.241l0.55-0.548 0.486 0.484-0.548 0.546zM31.816 23.36c-0.135 0.134-0.354 0.134-0.488 0-0.065-0.065-0.101-0.151-0.101-0.242s0.036-0.176 0.101-0.241l0.55-0.548 0.487 0.484-0.548 0.546zM33.806 21.378c-0 0-0.001 0-0.001 0.001l-1.009 1.006-0.487-0.484 1.008-1.003c0 0 0 0 0-0s0.001-0 0.001-0.001c0.023-0.023 0.037-0.050 0.051-0.077 0.004-0.008 0.012-0.015 0.015-0.023 0.010-0.023 0.011-0.049 0.015-0.073 0.002-0.014 0.008-0.027 0.008-0.041 0-0.020-0.007-0.040-0.011-0.060-0.004-0.018-0.004-0.037-0.011-0.055-0.012-0.029-0.031-0.054-0.052-0.079-0.006-0.007-0.008-0.015-0.014-0.022 0 0 0 0-0 0s-0-0.001-0.001-0.001l-0.918-0.914c-0.010-0.010-0.022-0.014-0.033-0.022-0.016-0.012-0.032-0.024-0.050-0.033s-0.035-0.014-0.053-0.019c-0.019-0.006-0.038-0.010-0.059-0.011-0.019-0.001-0.036 0.001-0.055 0.003-0.020 0.002-0.039 0.005-0.059 0.012s-0.036 0.016-0.054 0.026c-0.011 0.006-0.024 0.009-0.035 0.016l-1.013 0.756-0.515-0.513 1.371-1.363 2.492 2.451-0.53 0.525zM37.702 17.368c-0.009-0.001-0.017 0.002-0.026 0.002-0.022-0.001-0.044 0-0.066 0.004-0.017 0.003-0.034 0.006-0.050 0.012-0.019 0.007-0.037 0.016-0.055 0.027s-0.033 0.021-0.047 0.035c-0.007 0.006-0.016 0.009-0.023 0.017l-2.685 2.94-2.473-2.432 1.619-1.61c0.119-0.119 0.12-0.312 0.001-0.431-0.060-0.060-0.139-0.090-0.218-0.089v-0l-1.268 0.008 0.016-0.919 1.774 0.015c0.723 0.739 1.731 1.2 2.847 1.2 0.25 0 0.494-0.026 0.731-0.070 0.023 0.018 0.045 0.037 0.074 0.049l1.377 0.549 0.087 0.433 0.102 0.506-1.716-0.244zM40.012 17.47l-0.179-0.89 0.827-0.617 0.217 0.287 0.325 0.431-1.189 0.789zM42.157 15.852l-0.479 0.449-0.532-0.706 0.475-0.364c0.089-0.068 0.2-0.096 0.31-0.082 0.111 0.016 0.208 0.073 0.274 0.162 0.124 0.167 0.103 0.399-0.049 0.541z"></path>
<path fill="#2e2f42" style="fill: var(--color3, #2e2f42)" d="M36.344 17.454l-1.225-1.219c-0.119-0.119-0.311-0.119-0.43 0l-1.224 1.219c-0.057 0.058-0.089 0.135-0.089 0.216s0.032 0.159 0.089 0.216l1.224 1.219c0.059 0.059 0.137 0.089 0.215 0.089s0.156-0.030 0.215-0.089l1.225-1.219c0.057-0.057 0.090-0.135 0.090-0.216s-0.032-0.159-0.090-0.216zM34.905 18.459l-0.792-0.789 0.792-0.789 0.793 0.789-0.793 0.789z"></path>
<path fill="#2e2f42" style="fill: var(--color3, #2e2f42)" d="M38.379 9.755l-0.147 0.592c0.041 0.010 0.993 0.258 0.993 1.228h0.609c0-1.153-0.952-1.695-1.455-1.82z"></path>
<path fill="#2e2f42" style="fill: var(--color3, #2e2f42)" d="M39.835 12.184h-0.609v0.61h0.609v-0.61z"></path>
</symbol>
</defs>
</svg>
